<?xml version="1.0" encoding="utf-8"?>
<!-- Generator: Adobe Illustrator 27.2.0, SVG Export Plug-In . SVG Version: 6.00 Build 0)  -->
<svg version="1.1" id="Layer_1" xmlns="http://www.w3.org/2000/svg" xmlns:xlink="http://www.w3.org/1999/xlink" x="0px" y="0px"
	 viewBox="0 0 300 145" style="enable-background:new 0 0 300 145;" xml:space="preserve">
<style type="text/css">
	.st0{fill:#EFF8E0;}
	.st1{fill:#006837;}
</style>
<g>
	<path class="st0" d="M272.48,141.03L272.48,141.03L2.26,118.17L13.4,69.16c5.29-23.29,24.88-40.59,48.64-42.97L283.75,4.02
		c4.83-0.48,9.25,2.76,10.23,7.52v0C303.12,55.88,295.46,102.03,272.48,141.03z"/>
	<g>
		<path class="st1" d="M36.04,75.01c0-9.28,6.77-15.86,16.05-15.86c6.21,0,9.97,2.7,11.97,5.45l-5.2,4.89
			c-1.44-2.13-3.64-3.26-6.39-3.26c-4.83,0-8.21,3.51-8.21,8.78s3.39,8.84,8.21,8.84c2.76,0,4.95-1.25,6.39-3.32l5.2,4.89
			c-2.01,2.76-5.77,5.52-11.97,5.52C42.81,90.93,36.04,84.35,36.04,75.01z"/>
		<path class="st1" d="M82.68,97.29c-8.59,0-15.86-6.02-15.86-15.99c0-10.03,7.27-16.05,15.86-16.05s15.92,6.02,15.92,16.05
			C98.61,91.28,91.27,97.29,82.68,97.29z M82.68,73.53c-4.7,0-8.78,2.76-8.78,7.77c0,4.95,4.08,7.71,8.78,7.71
			c4.76,0,8.84-2.76,8.84-7.71C91.52,76.29,87.45,73.53,82.68,73.53z"/>
		<path class="st1" d="M140.68,90.18V71.06c0-2.82-1.25-4.83-4.51-4.83c-2.82,0-5.14,1.88-6.27,3.51v20.44h-8.02V71.06
			c0-2.82-1.25-4.83-4.51-4.83c-2.76,0-5.08,1.88-6.27,3.51v20.44h-7.96V59.9h7.96v3.89c1.32-1.76,5.27-4.64,9.91-4.64
			c4.45,0,7.34,2.07,8.4,5.45c1.76-2.7,5.77-5.45,10.41-5.45c5.58,0,8.9,2.95,8.9,9.15v21.88H140.68z"/>
		<path class="st1" d="M163,86.29v15.42h-7.96V59.9H163v3.82c2.32-2.95,5.64-4.58,9.34-4.58c7.77,0,13.42,5.77,13.42,15.86
			s-5.64,15.92-13.42,15.92C168.77,90.93,165.51,89.43,163,86.29z M177.55,75.01c0-5.2-3.13-8.78-7.71-8.78
			c-2.57,0-5.45,1.44-6.83,3.45v10.66c1.32,1.94,4.26,3.51,6.83,3.51C174.42,83.85,177.55,80.27,177.55,75.01z"/>
		<path class="st1" d="M205.01,97.29c-8.59,0-15.86-6.02-15.86-15.99c0-10.03,7.27-16.05,15.86-16.05c8.59,0,15.92,6.02,15.92,16.05
			C220.93,91.28,213.6,97.29,205.01,97.29z M205.01,73.53c-4.7,0-8.78,2.76-8.78,7.77c0,4.95,4.08,7.71,8.78,7.71
			c4.76,0,8.84-2.76,8.84-7.71C213.85,76.29,209.77,73.53,205.01,73.53z"/>
		<path class="st1" d="M223.45,86.23l3.45-5.77c2.26,2.13,6.71,4.2,10.47,4.2c3.45,0,5.08-1.32,5.08-3.2
			c0-4.95-17.93-0.88-17.93-12.79c0-5.08,4.39-9.53,12.41-9.53c5.08,0,9.15,1.76,12.16,4.14l-3.2,5.64
			c-1.82-1.88-5.27-3.51-8.97-3.51c-2.88,0-4.76,1.25-4.76,2.95c0,4.45,17.99,0.69,17.99,12.91c0,5.58-4.76,9.65-13.17,9.65
			C231.72,90.93,226.65,89.18,223.45,86.23z"/>
		<path class="st1" d="M257.3,82.59V66.86h-5.02V59.9h5.02v-8.28h7.96v8.28h6.14v6.96h-6.14v13.6c0,1.94,1,3.39,2.76,3.39
			c1.19,0,2.32-0.44,2.76-0.94l1.69,6.08c-1.19,1.07-3.32,1.94-6.65,1.94C260.25,90.93,257.3,88.05,257.3,82.59z"/>
	</g>
</g>
</svg>
