<?xml version="1.0" encoding="utf-8"?>
<!-- Generator: Adobe Illustrator 27.2.0, SVG Export Plug-In . SVG Version: 6.00 Build 0)  -->
<svg version="1.1" id="Layer_1" xmlns="http://www.w3.org/2000/svg" xmlns:xlink="http://www.w3.org/1999/xlink" x="0px" y="0px"
	 viewBox="0 0 400 120" style="enable-background:new 0 0 400 120;" xml:space="preserve">
<style type="text/css">
	.st0{fill:#006837;}
</style>
<g>
	<path class="st0" d="M9.76,60.63c0-15.05,10.99-25.73,26.04-25.73c10.07,0,16.17,4.37,19.43,8.85l-8.44,7.93
		c-2.34-3.46-5.9-5.29-10.38-5.29c-7.83,0-13.32,5.7-13.32,14.24c0,8.54,5.49,14.34,13.32,14.34c4.48,0,8.04-2.03,10.38-5.39
		l8.44,7.93c-3.25,4.48-9.36,8.95-19.43,8.95C20.74,86.46,9.76,75.78,9.76,60.63z"/>
	<path class="st0" d="M85.42,95.15c-13.93,0-25.73-9.76-25.73-25.94c0-16.27,11.8-26.04,25.73-26.04c13.94,0,25.84,9.76,25.84,26.04
		C111.25,85.38,99.35,95.15,85.42,95.15z M85.42,56.6c-7.63,0-14.24,4.48-14.24,12.61c0,8.04,6.61,12.51,14.24,12.51
		c7.73,0,14.34-4.48,14.34-12.51C99.76,61.07,93.15,56.6,85.42,56.6z"/>
	<path class="st0" d="M179.51,85.24V54.22c0-4.58-2.03-7.83-7.32-7.83c-4.58,0-8.34,3.05-10.17,5.7v33.16H149V54.22
		c0-4.58-2.03-7.83-7.32-7.83c-4.48,0-8.24,3.05-10.17,5.7v33.16h-12.92V36.11h12.92v6.31c2.14-2.85,8.54-7.53,16.07-7.53
		c7.22,0,11.9,3.36,13.63,8.85c2.85-4.37,9.36-8.85,16.88-8.85c9.05,0,14.44,4.78,14.44,14.85v35.5H179.51z"/>
	<path class="st0" d="M215.72,78.94v25.02H202.8V36.11h12.92v6.2c3.76-4.78,9.15-7.43,15.16-7.43c12.61,0,21.77,9.36,21.77,25.73
		c0,16.38-9.15,25.84-21.77,25.84C225.07,86.46,219.79,84.02,215.72,78.94z M239.31,60.63c0-8.44-5.09-14.24-12.51-14.24
		c-4.17,0-8.85,2.34-11.09,5.59v17.29c2.14,3.15,6.92,5.7,11.09,5.7C234.23,74.97,239.31,69.17,239.31,60.63z"/>
	<path class="st0" d="M283.85,95.15c-13.93,0-25.73-9.76-25.73-25.94c0-16.27,11.8-26.04,25.73-26.04
		c13.94,0,25.84,9.76,25.84,26.04C309.68,85.38,297.78,95.15,283.85,95.15z M283.85,56.6c-7.63,0-14.24,4.48-14.24,12.61
		c0,8.04,6.61,12.51,14.24,12.51c7.73,0,14.34-4.48,14.34-12.51C298.19,61.07,291.58,56.6,283.85,56.6z"/>
	<path class="st0" d="M313.76,78.83l5.59-9.36c3.66,3.46,10.88,6.81,16.99,6.81c5.59,0,8.24-2.14,8.24-5.19
		c0-8.04-29.09-1.42-29.09-20.75c0-8.24,7.12-15.46,20.14-15.46c8.24,0,14.85,2.85,19.73,6.71l-5.19,9.15
		c-2.95-3.05-8.54-5.7-14.54-5.7c-4.68,0-7.73,2.03-7.73,4.78c0,7.22,29.19,1.12,29.19,20.95c0,9.05-7.73,15.66-21.36,15.66
		C327.19,86.46,318.95,83.61,313.76,78.83z"/>
	<path class="st0" d="M368.68,72.93V47.4h-8.14V36.11h8.14V22.69h12.92v13.43h9.97V47.4h-9.97v22.07c0,3.15,1.63,5.49,4.48,5.49
		c1.93,0,3.76-0.71,4.48-1.53l2.75,9.87c-1.93,1.73-5.39,3.15-10.78,3.15C373.46,86.46,368.68,81.78,368.68,72.93z"/>
</g>
</svg>
